<?xml version="1.0" encoding="UTF-8"?>
<svg width="152px" height="184px" viewBox="0 0 152 184" version="1.1" xmlns="http://www.w3.org/2000/svg" xmlns:xlink="http://www.w3.org/1999/xlink">
    <!-- Generator: Sketch 53 (72520) - https://sketchapp.com -->
    <title>分组 9</title>
    <desc>Created with Sketch.</desc>
    <defs>
        <linearGradient x1="50%" y1="0%" x2="50%" y2="100%" id="linearGradient-1">
            <stop stop-color="#FFFFFF" offset="0%"></stop>
            <stop stop-color="#B4B4B4" offset="100%"></stop>
        </linearGradient>
        <path d="M19.0894546,1.23 L35.0014546,1.23 L35.0014546,3.048 L25.8934546,3.048 L25.8934546,3.912 C25.8574546,4.776 25.8214546,5.586 25.7494546,6.36 L33.5614546,6.36 C33.5254546,11.292 33.3274546,14.262 32.9674546,15.234 C32.5714546,16.206 31.9054546,16.692 30.9514546,16.692 C30.0874546,16.692 29.0614546,16.656 27.8554546,16.584 L27.3694546,14.802 C28.6294546,14.856 29.6734546,14.892 30.5014546,14.928 C30.9694546,14.892 31.2754546,14.514 31.4194546,13.776 C31.5274546,13.056 31.5994546,11.148 31.6354546,8.088 L25.5334546,8.088 C25.2634546,9.726 24.8674546,11.13 24.3274546,12.318 C23.3914546,14.262 21.8794546,15.774 19.8094546,16.818 L18.7474546,15.162 C20.7814546,14.046 22.1494546,12.642 22.8694546,10.95 C23.5534546,9.132 23.9494546,6.792 24.0214546,3.912 L24.0214546,3.048 L19.0894546,3.048 L19.0894546,1.23 Z M43.1276364,12.732 L43.1276364,14.28 C44.7116364,11.688 45.5216364,8.016 45.5576364,3.228 L45.5576364,2.544 L43.9916364,2.544 L43.9916364,0.78 L52.2176364,0.78 L52.2176364,1.95 C51.9476364,3.408 51.6776364,4.668 51.4076364,5.748 L53.6036364,5.748 L53.6036364,6.792 C53.2076364,9.222 52.4336364,11.256 51.2816364,12.912 C52.1816364,13.794 53.1896364,14.586 54.3416364,15.288 L53.1536364,16.89 C52.0016364,16.116 50.9936364,15.252 50.1296364,14.316 C49.0676364,15.396 47.8076364,16.26 46.3676364,16.926 L45.3236364,15.216 C46.7276364,14.532 47.9156364,13.704 48.8696364,12.732 C48.0596364,11.562 47.4116364,10.284 46.9256364,8.898 C46.3496364,12.282 45.2336364,14.928 43.5956364,16.836 L42.1736364,15.594 C42.4436364,15.27 42.6956364,14.928 42.9476364,14.568 C41.3996364,15.162 39.6716364,15.648 37.7456364,16.008 L37.4936364,14.172 C39.6356364,13.812 41.5076364,13.344 43.1276364,12.732 Z M49.9676364,11.418 C50.7956364,10.23 51.3896364,8.88 51.7316364,7.386 L49.2476364,7.386 C49.5536364,6.27 49.8956364,4.65 50.2916364,2.544 L47.3936364,2.544 L47.3936364,3.228 C47.3936364,4.02 47.3576364,4.794 47.3216364,5.514 C47.7896364,7.746 48.6716364,9.726 49.9676364,11.418 Z M40.6256364,0.15 L42.4256364,0.87 C41.5616364,2.886 40.6796364,4.56 39.7796364,5.874 C40.3916364,5.802 41.0036364,5.73 41.6336364,5.64 C41.9576364,5.064 42.3176364,4.434 42.6776364,3.768 L44.3156364,4.398 C42.8036364,7.008 41.5436364,8.934 40.5176364,10.176 C41.5976364,9.96 42.6956364,9.69 43.8116364,9.348 L43.8116364,11.04 C41.8316364,11.634 39.9776364,12.03 38.2136364,12.228 L37.7276364,10.536 C38.0516364,10.41 38.3396364,10.23 38.5736364,9.996 C39.1136364,9.492 39.7976364,8.592 40.6076364,7.332 C39.7796364,7.44 38.8976364,7.566 37.9976364,7.674 L37.5476364,5.964 C37.8356364,5.856 38.0876364,5.622 38.3216364,5.28 C39.2036364,3.732 39.9776364,2.022 40.6256364,0.15 Z M67.7418182,4.578 C67.6698182,4.83 67.6158182,5.064 67.5438182,5.316 C67.9398182,7.098 68.4258182,8.664 69.0198182,10.014 C69.5598182,8.43 69.8658182,6.612 69.9378182,4.578 L67.7418182,4.578 Z M68.1558182,11.94 C67.5798182,10.752 67.0758182,9.42 66.6438182,7.944 C66.3738182,8.538 66.0858182,9.096 65.7978182,9.6 L64.6278182,8.142 C65.6178182,6.162 66.2838182,3.516 66.6258182,0.204 L68.4618182,0.528 C68.3538182,1.32 68.2458182,2.058 68.1198182,2.76 L72.6198182,2.76 L72.6198182,4.578 L71.6298182,4.578 C71.5218182,7.476 70.9998182,9.942 70.0458182,11.994 C70.9098182,13.434 71.9358182,14.568 73.1238182,15.378 L72.0798182,16.908 C70.9638182,16.08 69.9738182,15 69.1278182,13.668 C68.2818182,14.928 67.2378182,16.008 66.0138182,16.89 L65.0418182,15.306 C66.3378182,14.442 67.3818182,13.326 68.1558182,11.94 Z M59.6418182,8.556 L61.4058182,8.772 C61.2978182,9.042 61.2078182,9.312 61.1178182,9.564 L64.7358182,9.564 L64.7358182,11.076 C64.4298182,12.12 63.8898182,13.056 63.0978182,13.848 C63.7998182,14.154 64.4838182,14.478 65.1498182,14.838 L64.1418182,16.314 C63.4578182,15.9 62.6298182,15.468 61.6578182,15.018 C60.4698182,15.774 58.9938182,16.368 57.2118182,16.836 L56.3478182,15.27 C57.6438182,14.982 58.7598182,14.604 59.7138182,14.172 C58.9938182,13.866 58.2198182,13.56 57.4278182,13.254 C57.8598182,12.534 58.2378182,11.832 58.5618182,11.166 L56.7798182,11.166 L56.7798182,9.564 L59.2818182,9.564 C59.4078182,9.204 59.5338182,8.88 59.6418182,8.556 Z M61.4058182,13.146 C62.1438182,12.57 62.7018182,11.904 63.0798182,11.166 L60.4158182,11.166 C60.1818182,11.634 59.9298182,12.084 59.6778182,12.516 C60.2538182,12.696 60.8298182,12.912 61.4058182,13.146 Z M58.5438182,0.474 C58.9218182,1.14 59.2638182,1.86 59.5518182,2.634 L58.2198182,3.228 C57.8598182,2.364 57.4818182,1.608 57.0858182,0.942 L58.5438182,0.474 Z M63.6018182,0.456 L64.9158182,1.086 C64.5558182,1.842 64.1058182,2.58 63.5478182,3.3 L62.2338182,2.634 C62.8098182,1.896 63.2778182,1.176 63.6018182,0.456 Z M56.8158182,3.498 L60.1638182,3.498 L60.1638182,0.24 L61.8918182,0.24 L61.8918182,3.498 L64.9518182,3.498 L64.9518182,5.136 L61.8918182,5.136 L61.8918182,5.172 C62.8278182,5.55 63.7818182,5.982 64.7538182,6.468 L63.7818182,7.944 C63.0258182,7.35 62.3958182,6.882 61.8918182,6.54 L61.8918182,8.43 L60.1638182,8.43 L60.1638182,5.604 C59.5518182,6.828 58.6158182,7.89 57.3198182,8.826 L56.3838182,7.314 C57.5538182,6.648 58.4178182,5.928 58.9578182,5.136 L56.8158182,5.136 L56.8158182,3.498 Z M77.47,16.71 L75.94,16.71 L75.544,14.946 C75.994,15.018 76.426,15.072 76.84,15.072 C77.218,15.072 77.416,14.838 77.416,14.388 L77.416,10.752 C76.804,10.968 76.21,11.184 75.598,11.382 L75.112,9.528 C75.886,9.348 76.66,9.132 77.416,8.88 L77.416,5.28 L75.472,5.28 L75.472,3.462 L77.416,3.462 L77.416,0.276 L79.252,0.276 L79.252,3.462 L80.782,3.462 L80.782,5.28 L79.252,5.28 L79.252,8.142 C79.756,7.908 80.242,7.674 80.71,7.422 L80.71,9.258 C80.206,9.51 79.72,9.744 79.252,9.978 L79.252,14.856 C79.252,16.08 78.658,16.71 77.47,16.71 Z M83.158,8.952 C82.942,11.958 82.258,14.604 81.124,16.908 L79.648,15.594 C80.818,13.308 81.412,10.356 81.43,6.756 L81.43,0.78 L91.294,0.78 L91.294,5.55 L88.054,5.55 L88.054,7.242 L91.69,7.242 L91.69,8.952 L88.054,8.952 L88.054,10.68 L90.898,10.68 L90.898,16.872 L89.17,16.872 L89.17,16.134 L85.12,16.134 L85.12,16.872 L83.392,16.872 L83.392,10.68 L86.218,10.68 L86.218,8.952 L83.158,8.952 Z M86.218,5.55 L83.248,5.55 L83.248,6.756 C83.248,6.918 83.23,7.08 83.23,7.242 L86.218,7.242 L86.218,5.55 Z M85.12,14.478 L89.17,14.478 L89.17,12.336 L85.12,12.336 L85.12,14.478 Z M89.458,2.49 L83.248,2.49 L83.248,3.894 L89.458,3.894 L89.458,2.49 Z M95.1181818,3.678 L98.1781818,3.678 L98.1781818,0.168 L100.068182,0.168 L100.068182,3.678 L104.568182,3.678 L104.568182,0.24 L106.458182,0.24 L106.458182,3.678 L109.536182,3.678 L109.536182,5.478 L106.458182,5.478 L106.458182,9.222 L110.436182,9.222 L110.436182,11.058 L94.2001818,11.058 L94.2001818,9.222 L98.1781818,9.222 L98.1781818,5.478 L95.1181818,5.478 L95.1181818,3.678 Z M100.068182,9.222 L104.568182,9.222 L104.568182,5.478 L100.068182,5.478 L100.068182,9.222 Z M99.5281818,11.274 L100.950182,12.534 C99.4741818,14.19 97.6381818,15.648 95.4781818,16.908 L94.1461818,15.198 C96.2881818,14.082 98.0881818,12.768 99.5281818,11.274 Z M105.270182,11.31 C107.322182,12.678 109.068182,14.046 110.490182,15.396 L108.996182,16.89 C107.808182,15.576 106.116182,14.154 103.920182,12.624 L105.270182,11.31 Z M115.502364,3.93 L126.788364,3.93 L126.788364,7.944 L115.502364,7.944 L115.502364,3.93 Z M124.970364,6.36 L124.970364,5.514 L117.320364,5.514 L117.320364,6.36 L124.970364,6.36 Z M121.262364,0.168 C121.496364,0.564 121.730364,1.014 121.946364,1.5 L129.020364,1.5 L129.020364,3.264 L113.252364,3.264 L113.252364,1.5 L119.786364,1.5 C119.570364,1.158 119.336364,0.834 119.084364,0.528 L121.262364,0.168 Z M112.856364,12.012 L120.524364,12.012 L120.524364,11.562 L123.692364,10.302 L114.602364,10.302 L114.602364,8.646 L127.472364,8.646 L127.472364,9.96 C126.032364,10.572 124.340364,11.256 122.432364,12.012 L129.416364,12.012 L129.416364,13.704 L122.378364,13.704 L122.378364,14.91 C122.378364,16.206 121.730364,16.872 120.452364,16.872 L117.968364,16.872 L117.464364,15.198 C118.418364,15.27 119.174364,15.306 119.714364,15.306 C120.254364,15.306 120.524364,14.982 120.524364,14.37 L120.524364,13.704 L112.856364,13.704 L112.856364,12.012 Z" id="path-2"></path>
        <filter x="-1.4%" y="-8.9%" width="102.7%" height="117.9%" filterUnits="objectBoundingBox" id="filter-3">
            <feOffset dx="0" dy="0" in="SourceAlpha" result="shadowOffsetOuter1"></feOffset>
            <feGaussianBlur stdDeviation="0.5" in="shadowOffsetOuter1" result="shadowBlurOuter1"></feGaussianBlur>
            <feColorMatrix values="0 0 0 0 0   0 0 0 0 0   0 0 0 0 0  0 0 0 0.532888986 0" type="matrix" in="shadowBlurOuter1"></feColorMatrix>
        </filter>
        <linearGradient x1="30.3920955%" y1="44.9258297%" x2="70.5700002%" y2="55.6638866%" id="linearGradient-4">
            <stop stop-color="#3786B4" offset="0%"></stop>
            <stop stop-color="#13CBDD" offset="100%"></stop>
        </linearGradient>
        <radialGradient cx="50%" cy="50%" fx="50%" fy="50%" r="40.2560987%" gradientTransform="translate(0.500000,0.500000),scale(0.360600,1.000000),rotate(90.000000),scale(1.000000,3.314527),translate(-0.500000,-0.500000)" id="radialGradient-5">
            <stop stop-color="#000420" stop-opacity="0.15477808" offset="0%"></stop>
            <stop stop-color="#13CBDD" stop-opacity="0.40794837" offset="100%"></stop>
        </radialGradient>
        <radialGradient cx="50%" cy="50%" fx="50%" fy="50%" r="64.5267677%" gradientTransform="translate(0.500000,0.500000),scale(1.000000,0.982143),rotate(90.000000),translate(-0.500000,-0.500000)" id="radialGradient-6">
            <stop stop-color="#00201A" stop-opacity="0" offset="0%"></stop>
            <stop stop-color="#00ACFF" offset="100%"></stop>
        </radialGradient>
    </defs>
    <g id="paas" stroke="none" stroke-width="1" fill="none" fill-rule="evenodd">
        <g id="分组-9" transform="translate(1.000000, 1.000000)">
            <g id="万级数据共享" fill-rule="nonzero">
                <use fill="black" fill-opacity="1" filter="url(#filter-3)" xlink:href="#path-2"></use>
                <use fill="#FFFFFF" xlink:href="#path-2"></use>
                <use fill="url(#linearGradient-1)" xlink:href="#path-2"></use>
            </g>
            <g id="分组-5" transform="translate(0.000000, 28.000000)">
                <g id="Group-31" transform="translate(0.000000, 43.000000)">
                    <g id="Group-27" transform="translate(34.951456, 28.159491)">
                        <polygon id="Path-40" fill="url(#linearGradient-4)" points="45.733264 2.80821362e-14 0 20.0952841 37.1804692 39.171688 88.5639117 17.2010964"></polygon>
                        <polygon id="Path-41" fill="#102F4B" points="0.123459277 20.2055785 40.8437511 83.9072747 37.1787194 39.2514399"></polygon>
                        <polygon id="Path-42" fill="#107EA3" points="88.5477087 17.1969876 40.8702896 83.8357501 37.2271574 39.1863675"></polygon>
                    </g>
                    <path d="M22.1971942,10.2215944 C20.6028189,10.7957887 19.0790359,11.3958062 17.6309937,12.0197766 C6.62957801,16.7603553 0,22.8835268 0,29.5691641 C0,44.6155241 33.5786438,56.8130089 75,56.8130089 C116.421356,56.8130089 150,44.6155241 150,29.5691641 C150,22.5403647 142.672386,16.1332537 130.640707,11.3008383 C129.420819,10.8108812 128.152574,10.3371118 126.838705,9.88052329" id="Oval-17-Copy" stroke="#13CBDD" stroke-width="1.5" opacity="0.7"></path>
                    <ellipse id="Oval-17" fill="url(#radialGradient-5)" cx="74.7572816" cy="22.2311774" rx="61.6504854" ry="22.2311774"></ellipse>
                </g>
                <g id="Group-32" transform="translate(48.000000, 0.000000)" fill="url(#radialGradient-6)">
                    <ellipse id="Oval-18" cx="27.5" cy="28" rx="27.5" ry="28"></ellipse>
                </g>
                <g id="wulumuqishigongandashujuguanlipingtai-ico-" transform="translate(62.000000, 16.000000)" fill="#FFFFFF" fill-rule="nonzero">
                    <path d="M12.0714286,13.4642857 C12.0714286,14.2335395 12.695032,14.8571429 13.4642857,14.8571429 C14.2335395,14.8571429 14.8571429,14.2335395 14.8571429,13.4642857 C14.8571429,12.695032 14.2335395,12.0714286 13.4642857,12.0714286 C12.695032,12.0714286 12.0714286,12.695032 12.0714286,13.4642857 L12.0714286,13.4642857 Z" id="路径"></path>
                    <path d="M2.23945914,10.1883241 C1.00245001,7.00017532 0.983121744,4.14050244 2.54871142,2.5754112 C5.40929504,-0.284261685 12.6187389,2.07303623 18.262593,7.73441566 C19.4904731,8.95822327 20.5973171,10.2976605 21.5677268,11.7340933 C21.8189943,11.2703625 22.0509335,10.8066318 22.2442162,10.3622232 C21.3282043,9.09888545 20.3135175,7.910077 19.2096781,6.80695418 C12.8313498,0.411334422 5.11937102,-1.84935293 1.69826765,1.62862761 C-0.524483132,3.77338227 -0.485826597,7.5218724 1.35035883,11.5795164 C1.69826765,11.0771414 1.93020686,10.6520549 2.23945914,10.1883241 Z M23.751821,15.8303815 C24.9888302,19.0185303 25.0081584,21.8782032 23.4425687,23.4432944 C20.5819851,26.3029673 13.3725413,23.9456694 7.72868715,18.2842899 C6.50080708,17.0604823 5.3939631,15.7210451 4.42355339,14.2846123 C4.17228591,14.7483431 3.94034669,15.2120738 3.74706402,15.6564824 C4.66307585,16.9198202 5.67776262,18.1086286 6.78160204,19.2117514 C13.1599304,25.5880491 20.8912374,27.8487364 24.3703256,24.3707559 C26.5157633,22.2260012 26.4771068,18.5741217 24.6409213,14.4198671 C24.3896539,14.9415642 24.0804016,15.3666507 23.751821,15.8303815 L23.751821,15.8303815 Z" id="形状"></path>
                    <path d="M2.55015941,23.4206182 C-0.249947958,20.5649033 2.0480712,13.3870253 7.7062192,7.73348164 C8.20830741,7.23180199 8.71039563,6.78800846 9.21248385,6.34421493 L10.4290822,5.28296953 L10.5449487,5.28296953 L11.7036139,4.45326858 C11.2401478,4.19599696 10.7831188,3.9708843 10.3325268,3.77793059 C9.06400653,4.68546928 7.86942072,5.69197598 6.75997601,6.78800846 C0.387317858,13.1747762 -1.87207913,20.8736293 1.68116057,24.3660914 C3.7474467,26.5078776 7.47448617,26.5078776 11.5491252,24.5783405 C11.0856591,24.3082053 10.6221931,23.9994794 10.158727,23.6714581 C6.97239795,24.9835433 4.11435733,24.9835433 2.55015941,23.4206182 L2.55015941,23.4206182 Z M15.816875,2.25359629 C19.0032041,1.01869254 21.8612447,1.01869254 23.4254427,2.56232222 C26.2834833,5.41803712 23.9275309,12.6152105 18.2693829,18.2494588 C17.0453864,19.4685386 15.7067432,20.5670128 14.2719882,21.5296719 C14.7354543,21.7869435 15.1989203,22.0120562 15.6623863,22.2050099 C16.9249529,21.2904935 18.1130779,20.2775379 19.215626,19.1756366 C25.5882842,12.8081642 27.8476812,5.09001582 24.3716858,1.61684904 C22.2088443,-0.505641761 18.4431826,-0.505641761 14.4071658,1.42389533 C14.8706319,1.69403053 15.3340979,2.00275646 15.7975639,2.3114824 L15.816875,2.25359629 Z" id="形状"></path>
                </g>
            </g>
        </g>
    </g>
</svg>