<?xml version="1.0" encoding="UTF-8"?>
<svg width="162px" height="200px" viewBox="0 0 162 200" version="1.1" xmlns="http://www.w3.org/2000/svg" xmlns:xlink="http://www.w3.org/1999/xlink">
    <!-- Generator: Sketch 53 (72520) - https://sketchapp.com -->
    <title>分组 10</title>
    <desc>Created with Sketch.</desc>
    <defs>
        <linearGradient x1="50%" y1="0%" x2="50%" y2="100%" id="linearGradient-1">
            <stop stop-color="#FFFFFF" offset="0%"></stop>
            <stop stop-color="#B4B4B4" offset="100%"></stop>
        </linearGradient>
        <path d="M33.6390908,3.999 C33.5630908,4.265 33.5060908,4.512 33.4300908,4.778 C33.8480908,6.659 34.3610908,8.312 34.9880908,9.737 C35.5580908,8.065 35.8810908,6.146 35.9570908,3.999 L33.6390908,3.999 Z M34.0760908,11.77 C33.4680908,10.516 32.9360908,9.11 32.4800908,7.552 C32.1950908,8.179 31.8910908,8.768 31.5870908,9.3 L30.3520908,7.761 C31.3970908,5.671 32.1000908,2.878 32.4610908,-0.618 L34.3990908,-0.276 C34.2850908,0.56 34.1710908,1.339 34.0380908,2.08 L38.7880908,2.08 L38.7880908,3.999 L37.7430908,3.999 C37.6290908,7.058 37.0780908,9.661 36.0710908,11.827 C36.9830908,13.347 38.0660908,14.544 39.3200908,15.399 L38.2180908,17.014 C37.0400908,16.14 35.9950908,15 35.1020908,13.594 C34.2090908,14.924 33.1070908,16.064 31.8150908,16.995 L30.7890908,15.323 C32.1570908,14.411 33.2590908,13.233 34.0760908,11.77 Z M25.0890908,8.198 L26.9510908,8.426 C26.8370908,8.711 26.7420908,8.996 26.6470908,9.262 L30.4660908,9.262 L30.4660908,10.858 C30.1430908,11.96 29.5730908,12.948 28.7370908,13.784 C29.4780908,14.107 30.2000908,14.449 30.9030908,14.829 L29.8390908,16.387 C29.1170908,15.95 28.2430908,15.494 27.2170908,15.019 C25.9630908,15.817 24.4050908,16.444 22.5240908,16.938 L21.6120908,15.285 C22.9800908,14.981 24.1580908,14.582 25.1650908,14.126 C24.4050908,13.803 23.5880908,13.48 22.7520908,13.157 C23.2080908,12.397 23.6070908,11.656 23.9490908,10.953 L22.0680908,10.953 L22.0680908,9.262 L24.7090908,9.262 C24.8420908,8.882 24.9750908,8.54 25.0890908,8.198 Z M26.9510908,13.043 C27.7300908,12.435 28.3190908,11.732 28.7180908,10.953 L25.9060908,10.953 C25.6590908,11.447 25.3930908,11.922 25.1270908,12.378 C25.7350908,12.568 26.3430908,12.796 26.9510908,13.043 Z M23.9300908,-0.333 C24.3290908,0.37 24.6900908,1.13 24.9940908,1.947 L23.5880908,2.574 C23.2080908,1.662 22.8090908,0.864 22.3910908,0.161 L23.9300908,-0.333 Z M29.2690908,-0.352 L30.6560908,0.313 C30.2760908,1.111 29.8010908,1.89 29.2120908,2.65 L27.8250908,1.947 C28.4330908,1.168 28.9270908,0.408 29.2690908,-0.352 Z M22.1060908,2.859 L25.6400908,2.859 L25.6400908,-0.58 L27.4640908,-0.58 L27.4640908,2.859 L30.6940908,2.859 L30.6940908,4.588 L27.4640908,4.588 L27.4640908,4.626 C28.4520908,5.025 29.4590908,5.481 30.4850908,5.994 L29.4590908,7.552 C28.6610908,6.925 27.9960908,6.431 27.4640908,6.07 L27.4640908,8.065 L25.6400908,8.065 L25.6400908,5.082 C24.9940908,6.374 24.0060908,7.495 22.6380908,8.483 L21.6500908,6.887 C22.8850908,6.184 23.7970908,5.424 24.3670908,4.588 L22.1060908,4.588 L22.1060908,2.859 Z M57.0557272,4.284 L57.0557272,16.976 L55.0607272,16.976 L55.0607272,16.311 L45.6177272,16.311 L45.6177272,16.976 L43.6037272,16.976 L43.6037272,4.284 L48.5247272,4.284 C48.7337272,3.505 48.9047272,2.707 49.0187272,1.909 L41.6467272,1.909 L41.6467272,-0.029 L58.9367272,-0.029 L58.9367272,1.909 L50.9947272,1.909 C50.8617272,2.726 50.6907272,3.524 50.4817272,4.284 L57.0557272,4.284 Z M45.6177272,14.373 L55.0607272,14.373 L55.0607272,11.162 L45.6177272,11.162 L45.6177272,14.373 Z M45.6177272,9.338 L55.0607272,9.338 L55.0607272,6.203 L45.6177272,6.203 L45.6177272,9.338 Z M63.2963636,-0.466 C64.5503636,0.522 65.6143636,1.529 66.4883636,2.517 L65.0633636,3.923 C64.3223636,2.973 63.2773636,1.947 61.9093636,0.845 L63.2963636,-0.466 Z M74.1073636,16.672 C73.0813636,16.672 71.9603636,16.653 70.7633636,16.634 C69.5473636,16.615 68.5593636,16.501 67.7613636,16.311 C67.0013636,16.083 66.3553636,15.646 65.8043636,15 C65.5573636,14.677 65.3293636,14.525 65.1013636,14.525 C64.7403636,14.525 64.0943636,15.38 63.1443636,17.09 L61.6813636,15.722 C62.6313636,14.202 63.4673636,13.233 64.2273636,12.815 L64.2273636,7.609 L61.7193636,7.609 L61.7193636,5.785 L66.0703636,5.785 L66.0703636,13.024 L66.2603636,13.214 C66.6783636,13.708 67.1153636,14.088 67.5523636,14.335 C68.1033636,14.62 68.9203636,14.772 70.0223636,14.81 C71.1053636,14.829 72.3783636,14.848 73.8223636,14.848 C74.7723636,14.848 75.7223636,14.829 76.7103636,14.829 C77.6793636,14.791 78.4203636,14.753 78.9523636,14.715 L78.4583636,16.672 L74.1073636,16.672 Z M68.3503636,0.275 L77.3183636,0.275 L77.3183636,2.099 L68.3503636,2.099 L68.3503636,0.275 Z M67.1343636,4.55 L78.7053636,4.55 L78.7053636,6.431 L72.8913636,6.431 C72.0553636,8.521 71.2193636,10.174 70.3833636,11.39 C72.3783636,11.124 74.0693636,10.82 75.4753636,10.459 C75.0953636,9.566 74.6773636,8.711 74.2403636,7.894 L75.8553636,7.362 C76.8433636,9.11 77.7173636,11.086 78.4773636,13.328 L76.7103636,13.765 C76.5203636,13.195 76.3493636,12.663 76.1593636,12.15 C74.1073636,12.682 71.4473636,13.119 68.1603636,13.461 L67.6663636,11.732 C68.4263636,11.504 69.5093636,9.737 70.9153636,6.431 L67.1343636,6.431 L67.1343636,4.55 Z M85.041,6.26 L95.073,6.26 L95.073,10.421 L85.041,10.421 L85.041,6.26 Z M93.249,8.958 L93.249,7.742 L86.865,7.742 L86.865,8.958 L93.249,8.958 Z M96.84,11.314 L96.84,16.995 L94.921,16.995 L94.921,16.292 L85.269,16.292 L85.269,16.995 L83.331,16.995 L83.331,11.314 L96.84,11.314 Z M85.269,14.62 L94.921,14.62 L94.921,12.948 L85.269,12.948 L85.269,14.62 Z M81.754,0.522 L85.801,0.522 L85.801,-0.58 L87.777,-0.58 L87.777,0.522 L92.223,0.522 L92.223,-0.58 L94.199,-0.58 L94.199,0.522 L98.246,0.522 L98.246,2.251 L94.199,2.251 L94.199,3.163 L92.223,3.163 L92.223,2.251 L87.777,2.251 L87.777,3.163 L85.801,3.163 L85.801,2.251 L81.754,2.251 L81.754,0.522 Z M97.923,3.657 L97.923,7.552 L96.023,7.552 L96.023,5.329 L83.977,5.329 L83.977,7.647 L82.077,7.647 L82.077,3.657 L97.923,3.657 Z M108.457636,2.479 L110.243636,3.03 C109.977636,3.334 109.749636,3.638 109.521636,3.923 L117.501636,3.923 L117.501636,5.481 L114.423636,5.481 C113.853636,6.184 113.283636,6.773 112.675636,7.248 C114.214636,7.628 115.791636,8.084 117.387636,8.578 L116.266636,10.098 C114.442636,9.452 112.599636,8.882 110.756636,8.388 C108.761636,9.281 106.196636,9.756 103.042636,9.813 L101.978636,8.179 C104.524636,8.179 106.538636,8.008 108.020636,7.685 C106.880636,7.419 105.740636,7.172 104.619636,6.963 C105.094636,6.469 105.550636,5.975 105.987636,5.481 L102.263636,5.481 L102.263636,3.923 L107.317636,3.923 C107.716636,3.429 108.096636,2.935 108.457636,2.479 Z M110.471636,6.735 C111.155636,6.355 111.725636,5.937 112.200636,5.481 L108.153636,5.481 C107.925636,5.728 107.697636,5.956 107.507636,6.165 C108.476636,6.317 109.464636,6.507 110.471636,6.735 Z M117.653636,0.731 L117.653636,3.657 L115.791636,3.657 L115.791636,2.365 L103.935636,2.365 L103.935636,3.657 L102.073636,3.657 L102.073636,0.731 L108.818636,0.731 C108.590636,0.332 108.362636,-0.048 108.115636,-0.39 L110.167636,-0.732 C110.376636,-0.295 110.585636,0.199 110.794636,0.731 L117.653636,0.731 Z M101.655636,10.535 L108.894636,10.535 L108.894636,9.224 L110.908636,9.224 L110.908636,10.535 L118.090636,10.535 L118.090636,12.245 L112.580636,12.245 C113.910636,13.309 115.848636,14.183 118.413636,14.829 L117.539636,16.577 C114.537636,15.532 112.333636,14.202 110.908636,12.568 L110.908636,16.919 L108.894636,16.919 L108.894636,12.53 C107.602636,14.126 105.417636,15.513 102.377636,16.691 L101.313636,14.943 C104.049636,14.126 106.025636,13.233 107.222636,12.245 L101.655636,12.245 L101.655636,10.535 Z M126.193273,0.351 L132.539273,0.351 L132.539273,2.232 L129.290273,2.232 C129.214273,2.973 129.100273,3.695 128.967273,4.379 L132.292273,4.379 L132.292273,6.089 C131.703273,11.314 129.803273,14.943 126.573273,16.995 L125.585273,15.209 C126.991273,14.297 128.112273,13.005 128.948273,11.371 C128.302273,10.763 127.675273,10.231 127.048273,9.794 C126.687273,10.402 126.307273,10.953 125.908273,11.447 L124.901273,9.509 C126.269273,7.723 127.105273,5.31 127.428273,2.232 L126.193273,2.232 L126.193273,0.351 Z M127.846273,8.198 C128.492273,8.597 129.119273,9.053 129.708273,9.547 C130.050273,8.521 130.297273,7.4 130.487273,6.184 L128.549273,6.184 C128.340273,6.906 128.112273,7.571 127.846273,8.198 Z M135.940273,16.843 L133.850273,16.843 L133.394273,14.943 C134.040273,15.019 134.667273,15.076 135.256273,15.076 C135.712273,15.076 135.940273,14.848 135.940273,14.43 L135.940273,-0.542 L137.916273,-0.542 L137.916273,14.905 C137.916273,16.197 137.251273,16.843 135.940273,16.843 Z M122.526273,7.514 C122.184273,8.008 121.804273,8.483 121.424273,8.958 L120.759273,6.83 C122.298273,4.683 123.438273,2.156 124.198273,-0.77 L126.079273,0.104 C125.661273,1.529 125.148273,2.897 124.502273,4.227 L124.502273,17.014 L122.526273,17.014 L122.526273,7.514 Z M133.071273,1.149 L134.876273,1.149 L134.876273,12.872 L133.071273,12.872 L133.071273,1.149 Z" id="path-2"></path>
        <filter x="-1.3%" y="-8.4%" width="102.6%" height="116.8%" filterUnits="objectBoundingBox" id="filter-3">
            <feOffset dx="0" dy="0" in="SourceAlpha" result="shadowOffsetOuter1"></feOffset>
            <feGaussianBlur stdDeviation="0.5" in="shadowOffsetOuter1" result="shadowBlurOuter1"></feGaussianBlur>
            <feColorMatrix values="0 0 0 0 0   0 0 0 0 0   0 0 0 0 0  0 0 0 0.532888986 0" type="matrix" in="shadowBlurOuter1"></feColorMatrix>
        </filter>
        <linearGradient x1="30.3920955%" y1="44.9706345%" x2="70.5700002%" y2="55.6138746%" id="linearGradient-4">
            <stop stop-color="#3786B4" offset="0%"></stop>
            <stop stop-color="#13CBDD" offset="100%"></stop>
        </linearGradient>
        <radialGradient cx="50%" cy="50%" fx="50%" fy="50%" r="40.2560987%" gradientTransform="translate(0.500000,0.500000),scale(0.359005,1.000000),rotate(90.000000),scale(1.000000,3.314527),translate(-0.500000,-0.500000)" id="radialGradient-5">
            <stop stop-color="#000420" stop-opacity="0.15477808" offset="0%"></stop>
            <stop stop-color="#13CBDD" stop-opacity="0.40794837" offset="100%"></stop>
        </radialGradient>
        <radialGradient cx="50%" cy="50%" fx="50%" fy="50%" r="64.4486482%" gradientTransform="translate(0.500000,0.500000),scale(1.000000,0.983333),rotate(90.000000),translate(-0.500000,-0.500000)" id="radialGradient-6">
            <stop stop-color="#002001" stop-opacity="0" offset="0%"></stop>
            <stop stop-color="#F5AD1E" offset="100%"></stop>
        </radialGradient>
    </defs>
    <g id="paas" stroke="none" stroke-width="1" fill="none" fill-rule="evenodd">
        <g id="分组-10" transform="translate(1.000000, 2.000000)">
            <g id="数百运营案例" fill-rule="nonzero">
                <use fill="black" fill-opacity="1" filter="url(#filter-3)" xlink:href="#path-2"></use>
                <use fill="#FFFFFF" xlink:href="#path-2"></use>
                <use fill="url(#linearGradient-1)" xlink:href="#path-2"></use>
            </g>
            <g id="分组-4" transform="translate(0.000000, 33.000000)">
                <g id="Group-31" transform="translate(0.000000, 46.000000)">
                    <g id="Group-27" transform="translate(37.281553, 29.903885)">
                        <polygon id="Path-40" fill="url(#linearGradient-4)" points="48.7821483 2.98217376e-14 0 21.3401247 39.6591671 41.5982527 94.4681725 18.266651"></polygon>
                        <polygon id="Path-41" fill="#102F4B" points="0.131689896 21.4572515 43.5666678 89.1050705 39.6573007 41.6829451"></polygon>
                        <polygon id="Path-42" fill="#107EA3" points="94.4508893 18.2622877 43.5949756 89.0291151 39.7089679 41.6138416"></polygon>
                    </g>
                    <path d="M23.6770071,10.8547905 C21.9763402,11.4645544 20.3509717,12.1017411 18.8063933,12.7643646 C7.07154987,17.7986073 0,24.3010904 0,31.4008823 C0,47.3793177 35.81722,60.3323989 80,60.3323989 C124.18278,60.3323989 160,47.3793177 160,31.4008823 C160,23.9366704 152.183879,17.1326588 139.350088,12.0008903 C138.048874,11.4805818 136.696078,10.9774638 135.294619,10.4925911" id="Oval-17-Copy" stroke="#13CBDD" stroke-width="1.5" opacity="0.7"></path>
                    <ellipse id="Oval-17" fill="url(#radialGradient-5)" cx="79.7411003" cy="23.60833" rx="65.7605178" ry="23.60833"></ellipse>
                </g>
                <g id="Group-32" transform="translate(51.000000, 0.000000)" fill="url(#radialGradient-6)">
                    <ellipse id="Oval-18" cx="29.5" cy="30" rx="29.5" ry="30"></ellipse>
                </g>
                <g id="yunying" transform="translate(67.000000, 16.000000)" fill="#FFFFFF" fill-rule="nonzero">
                    <path d="M22.4656414,8.15380809 L16.4757932,13.0856265 L10.2559509,8.62400511 C10.0259567,8.38832322 9.56471846,8.62400511 9.33472428,8.85852027 L4.26610277,13.5546568 C4.03610859,13.7903387 3.80486445,14.4938841 4.26610277,14.729566 C4.49609694,14.9629144 5.18732941,15.1985963 5.41732359,14.729566 L10.0259567,10.5024597 L16.2457991,14.729566 C16.4757932,14.729566 16.4757932,14.9629144 16.7057874,14.9629144 C16.9370315,14.9629144 17.1670257,14.9629144 17.1670257,14.729566 L23.6168622,9.56323242 C24.0793504,9.32871729 24.0793504,8.85852024 23.8481063,8.38832325 C23.386868,7.91929296 22.9268797,7.91929296 22.4656414,8.15497485" id="路径"></path>
                    <path d="M25.1995909,2.04218181 L14.3995909,2.04218181 L14.3995909,0.906954548 C14.3995909,0.454090904 13.9504091,0 13.5,0 C13.0495909,0 12.6004091,0.454090904 12.6004091,0.908181809 L12.6004091,2.04218181 L1.8004091,2.04218181 C0.899590904,2.04218181 0,2.7220909 0,3.85731819 L0,18.8325 C0,19.7394545 0.899590904,20.6476364 1.8004091,20.6476364 L12.6004091,20.6476364 L12.6004091,21.5545909 L7.6495909,25.4119091 C7.2004091,25.6389545 7.2004091,26.0930455 7.425,26.5459091 C7.6495909,27 8.1,27 8.5504091,26.7729545 L12.6004091,23.8238182 L13.0495909,23.3697273 C13.2754091,23.1426818 13.5,23.1426818 13.7245909,23.3697273 L14.175,23.8238182 L18.225,26.7729545 C18.4495909,26.7729545 18.4495909,27 18.6754091,27 C18.9,27 19.1245909,27 19.3504091,26.7729545 C19.575,26.3188636 19.575,25.8647727 19.1245909,25.6389545 L14.3995909,21.5545909 L14.3995909,20.6464091 L25.1995909,20.6464091 C26.1004091,20.6464091 27,19.7394545 27,18.8325 L27,3.85731819 C27,2.72209093 26.1004091,2.04095455 25.1995909,2.04095455 L25.1995909,2.04218181 Z M25.4254091,18.8312727 C25.4254091,18.8312727 25.4254091,19.0583182 25.4254091,18.8312727 L1.8004091,19.0583182 C1.5745909,19.0583182 1.5745909,19.0583182 1.5745909,18.8325 L1.5745909,3.85731819 C1.5745909,3.63027274 1.5745909,3.63027274 1.8004091,3.63027274 L25.1995909,3.63027274 C25.4254091,3.63027274 25.4254091,3.63027274 25.4254091,3.85731819 L25.4254091,18.8325 L25.4254091,18.8312727 Z" id="形状"></path>
                </g>
            </g>
        </g>
    </g>
</svg>