<?xml version="1.0" encoding="UTF-8"?>
<svg width="162px" height="193px" viewBox="0 0 162 193" version="1.1" xmlns="http://www.w3.org/2000/svg" xmlns:xlink="http://www.w3.org/1999/xlink">
    <!-- Generator: Sketch 53 (72520) - https://sketchapp.com -->
    <title>分组 11</title>
    <desc>Created with Sketch.</desc>
    <defs>
        <linearGradient x1="50%" y1="0%" x2="50%" y2="100%" id="linearGradient-1">
            <stop stop-color="#FFFFFF" offset="0%"></stop>
            <stop stop-color="#B4B4B4" offset="100%"></stop>
        </linearGradient>
        <path d="M15.1083637,7.422 L22.2723637,7.422 L22.2723637,3.39 C20.5803637,3.498 18.7803637,3.57 16.8543637,3.57 L16.2603637,1.842 C21.2643637,1.842 25.4943637,1.374 28.9863637,0.474 L29.9403637,2.112 C28.2843637,2.598 26.3583637,2.958 24.1803637,3.21 L24.1803637,7.422 L31.1643637,7.422 L31.1643637,9.24 L24.1803637,9.24 L24.1803637,16.818 L22.2723637,16.818 L22.2723637,9.24 L15.1083637,9.24 L15.1083637,7.422 Z M33.9985455,1.23 L49.9105455,1.23 L49.9105455,3.048 L40.8025455,3.048 L40.8025455,3.912 C40.7665455,4.776 40.7305455,5.586 40.6585455,6.36 L48.4705455,6.36 C48.4345455,11.292 48.2365455,14.262 47.8765455,15.234 C47.4805455,16.206 46.8145455,16.692 45.8605455,16.692 C44.9965455,16.692 43.9705455,16.656 42.7645455,16.584 L42.2785455,14.802 C43.5385455,14.856 44.5825455,14.892 45.4105455,14.928 C45.8785455,14.892 46.1845455,14.514 46.3285455,13.776 C46.4365455,13.056 46.5085455,11.148 46.5445455,8.088 L40.4425455,8.088 C40.1725455,9.726 39.7765455,11.13 39.2365455,12.318 C38.3005455,14.262 36.7885455,15.774 34.7185455,16.818 L33.6565455,15.162 C35.6905455,14.046 37.0585455,12.642 37.7785455,10.95 C38.4625455,9.132 38.8585455,6.792 38.9305455,3.912 L38.9305455,3.048 L33.9985455,3.048 L33.9985455,1.23 Z M58.0367273,12.732 L58.0367273,14.28 C59.6207273,11.688 60.4307273,8.016 60.4667273,3.228 L60.4667273,2.544 L58.9007273,2.544 L58.9007273,0.78 L67.1267273,0.78 L67.1267273,1.95 C66.8567273,3.408 66.5867273,4.668 66.3167273,5.748 L68.5127273,5.748 L68.5127273,6.792 C68.1167273,9.222 67.3427273,11.256 66.1907273,12.912 C67.0907273,13.794 68.0987273,14.586 69.2507273,15.288 L68.0627273,16.89 C66.9107273,16.116 65.9027273,15.252 65.0387273,14.316 C63.9767273,15.396 62.7167273,16.26 61.2767273,16.926 L60.2327273,15.216 C61.6367273,14.532 62.8247273,13.704 63.7787273,12.732 C62.9687273,11.562 62.3207273,10.284 61.8347273,8.898 C61.2587273,12.282 60.1427273,14.928 58.5047273,16.836 L57.0827273,15.594 C57.3527273,15.27 57.6047273,14.928 57.8567273,14.568 C56.3087273,15.162 54.5807273,15.648 52.6547273,16.008 L52.4027273,14.172 C54.5447273,13.812 56.4167273,13.344 58.0367273,12.732 Z M64.8767273,11.418 C65.7047273,10.23 66.2987273,8.88 66.6407273,7.386 L64.1567273,7.386 C64.4627273,6.27 64.8047273,4.65 65.2007273,2.544 L62.3027273,2.544 L62.3027273,3.228 C62.3027273,4.02 62.2667273,4.794 62.2307273,5.514 C62.6987273,7.746 63.5807273,9.726 64.8767273,11.418 Z M55.5347273,0.15 L57.3347273,0.87 C56.4707273,2.886 55.5887273,4.56 54.6887273,5.874 C55.3007273,5.802 55.9127273,5.73 56.5427273,5.64 C56.8667273,5.064 57.2267273,4.434 57.5867273,3.768 L59.2247273,4.398 C57.7127273,7.008 56.4527273,8.934 55.4267273,10.176 C56.5067273,9.96 57.6047273,9.69 58.7207273,9.348 L58.7207273,11.04 C56.7407273,11.634 54.8867273,12.03 53.1227273,12.228 L52.6367273,10.536 C52.9607273,10.41 53.2487273,10.23 53.4827273,9.996 C54.0227273,9.492 54.7067273,8.592 55.5167273,7.332 C54.6887273,7.44 53.8067273,7.566 52.9067273,7.674 L52.4567273,5.964 C52.7447273,5.856 52.9967273,5.622 53.2307273,5.28 C54.1127273,3.732 54.8867273,2.022 55.5347273,0.15 Z M72.2649091,0.852 L86.9709091,0.852 L86.9709091,2.688 L80.4729091,2.688 L80.4729091,8.88 L87.6369091,8.88 L87.6369091,10.698 L80.4729091,10.698 L80.4729091,16.854 L78.5649091,16.854 L78.5649091,10.698 L71.5449091,10.698 L71.5449091,8.88 L78.5649091,8.88 L78.5649091,2.688 L72.2649091,2.688 L72.2649091,0.852 Z M74.9109091,3.408 C75.5589091,4.614 76.1709091,5.946 76.7829091,7.422 L75.0189091,8.286 C74.4429091,6.792 73.8129091,5.442 73.1649091,4.254 L74.9109091,3.408 Z M84.4329091,3.336 L86.1429091,4.146 C85.6389091,5.532 84.9729091,6.882 84.1629091,8.178 L82.4709091,7.314 C83.2989091,5.982 83.9469091,4.65 84.4329091,3.336 Z M104.619091,9.186 L104.619091,16.908 L102.711091,16.908 L102.711091,16.224 L94.1070909,16.224 L94.1070909,16.908 L92.1990909,16.908 L92.1990909,9.186 L104.619091,9.186 Z M94.1070909,14.424 L102.711091,14.424 L102.711091,10.986 L94.1070909,10.986 L94.1070909,14.424 Z M91.0650909,7.584 L90.7230909,5.802 C91.9830909,5.604 93.8550909,3.714 96.3030909,0.132 L98.2470909,0.816 C96.8610909,2.724 95.4390909,4.38 93.9630909,5.748 C96.8790909,5.604 99.7230909,5.406 102.495091,5.154 C101.955091,4.362 101.397091,3.606 100.839091,2.904 L102.549091,2.094 C103.989091,3.894 105.339091,5.874 106.635091,8.052 L104.799091,8.952 C104.403091,8.214 103.989091,7.512 103.575091,6.828 C99.8310909,7.17 95.6550909,7.422 91.0650909,7.584 Z M118.343273,1.266 L124.571273,1.266 L124.571273,7.98 L118.343273,7.98 L118.343273,1.266 Z M122.789273,6.288 L122.789273,2.94 L120.125273,2.94 L120.125273,6.288 L122.789273,6.288 Z M111.755273,0.276 L113.591273,0.276 L113.591273,1.716 L117.227273,1.716 C117.191273,4.974 116.993273,6.918 116.597273,7.566 C116.201273,8.214 115.499273,8.538 114.509273,8.538 C114.221273,8.538 113.897273,8.502 113.501273,8.43 L113.033273,6.738 C113.465273,6.792 113.807273,6.828 114.077273,6.846 C114.653273,6.828 115.013273,6.63 115.157273,6.27 C115.301273,5.91 115.373273,4.92 115.391273,3.336 L113.465273,3.336 C113.123273,5.784 112.061273,7.638 110.279273,8.898 L108.893273,7.656 C110.387273,6.684 111.287273,5.244 111.611273,3.336 L109.415273,3.336 L109.415273,1.716 L111.755273,1.716 L111.755273,0.276 Z M109.271273,9.816 L116.291273,9.816 L116.291273,8.538 L118.163273,8.538 L118.163273,9.816 L125.201273,9.816 L125.201273,11.58 L119.765273,11.58 C120.989273,12.804 122.897273,13.902 125.453273,14.874 L124.157273,16.512 C121.385273,15.036 119.387273,13.398 118.163273,11.616 L118.163273,16.854 L116.291273,16.854 L116.291273,11.616 C114.995273,13.578 112.925273,15.216 110.117273,16.512 L109.037273,14.766 C111.503273,13.902 113.375273,12.84 114.671273,11.58 L109.271273,11.58 L109.271273,9.816 Z M136.207455,0.24 L138.061455,0.474 C137.935455,1.23 137.791455,1.95 137.611455,2.652 L143.821455,2.652 C143.821455,9.06 143.731455,13.002 143.551455,14.514 C143.335454,15.99 142.417455,16.746 140.779455,16.746 C140.383455,16.746 139.735455,16.71 138.799455,16.656 L138.367455,14.982 C139.177455,15.036 139.879455,15.072 140.473455,15.072 C141.265455,15.072 141.715455,14.622 141.841455,13.74 C141.949455,12.858 142.021455,9.744 142.057455,4.398 L137.071455,4.398 C136.585455,5.73 135.991455,6.918 135.271455,7.98 L134.047455,6.396 C135.109455,4.722 135.829455,2.67 136.207455,0.24 Z M134.929455,13.164 L134.587455,11.598 C135.073455,11.328 135.937455,9.438 137.179455,5.946 L138.835455,6.558 C138.043455,8.61 137.395455,10.14 136.891455,11.148 C137.683455,10.968 138.403455,10.806 139.069455,10.662 C138.853455,10.032 138.637455,9.438 138.421455,8.898 L139.969455,8.358 C140.581455,9.726 141.103455,11.202 141.553455,12.786 L139.915455,13.542 C139.771455,13.02 139.645455,12.516 139.501455,12.048 C138.169455,12.444 136.639455,12.804 134.929455,13.164 Z M132.247455,8.322 L132.247455,16.818 L130.393455,16.818 L130.393455,8.754 C129.853455,10.23 129.205455,11.598 128.449455,12.858 L127.639455,10.77 C128.845455,9.186 129.727455,7.386 130.267455,5.352 L127.999455,5.352 L127.999455,3.534 L130.393455,3.534 L130.393455,0.222 L132.247455,0.222 L132.247455,3.534 L134.245455,3.534 L134.245455,5.352 L132.247455,5.352 L132.247455,6.162 C133.039455,6.954 133.831455,7.8 134.623455,8.736 L133.543455,10.338 C133.057455,9.546 132.625455,8.88 132.247455,8.322 Z" id="path-2"></path>
        <filter x="-1.2%" y="-8.9%" width="102.3%" height="117.9%" filterUnits="objectBoundingBox" id="filter-3">
            <feOffset dx="0" dy="0" in="SourceAlpha" result="shadowOffsetOuter1"></feOffset>
            <feGaussianBlur stdDeviation="0.5" in="shadowOffsetOuter1" result="shadowBlurOuter1"></feGaussianBlur>
            <feColorMatrix values="0 0 0 0 0   0 0 0 0 0   0 0 0 0 0  0 0 0 0.532888986 0" type="matrix" in="shadowBlurOuter1"></feColorMatrix>
        </filter>
        <linearGradient x1="30.3920955%" y1="44.9706345%" x2="70.5700002%" y2="55.6138746%" id="linearGradient-4">
            <stop stop-color="#3786B4" offset="0%"></stop>
            <stop stop-color="#13CBDD" offset="100%"></stop>
        </linearGradient>
        <radialGradient cx="50%" cy="50%" fx="50%" fy="50%" r="40.2560987%" gradientTransform="translate(0.500000,0.500000),scale(0.359005,1.000000),rotate(90.000000),scale(1.000000,3.314527),translate(-0.500000,-0.500000)" id="radialGradient-5">
            <stop stop-color="#000420" stop-opacity="0.15477808" offset="0%"></stop>
            <stop stop-color="#13CBDD" stop-opacity="0.40794837" offset="100%"></stop>
        </radialGradient>
        <radialGradient cx="50%" cy="50%" fx="50%" fy="50%" r="63.374504%" id="radialGradient-6">
            <stop stop-color="#000420" stop-opacity="0" offset="0%"></stop>
            <stop stop-color="#F53D1E" offset="100%"></stop>
        </radialGradient>
    </defs>
    <g id="paas" stroke="none" stroke-width="1" fill="none" fill-rule="evenodd">
        <g id="分组-11" transform="translate(1.000000, 1.000000)">
            <g id="千万级平台架构" fill-rule="nonzero">
                <use fill="black" fill-opacity="1" filter="url(#filter-3)" xlink:href="#path-2"></use>
                <use fill="#FFFFFF" xlink:href="#path-2"></use>
                <use fill="url(#linearGradient-1)" xlink:href="#path-2"></use>
            </g>
            <g id="分组-6" transform="translate(0.000000, 28.000000)">
                <g id="Group-31" transform="translate(0.000000, 45.000000)">
                    <g id="Group-27" transform="translate(37.281553, 29.903885)">
                        <polygon id="Path-40" fill="url(#linearGradient-4)" points="48.7821483 2.98217376e-14 0 21.3401247 39.6591671 41.5982527 94.4681725 18.266651"></polygon>
                        <polygon id="Path-41" fill="#102F4B" points="0.131689896 21.4572515 43.5666678 89.1050705 39.6573007 41.6829451"></polygon>
                        <polygon id="Path-42" fill="#107EA3" points="94.4508893 18.2622877 43.5949756 89.0291151 39.7089679 41.6138416"></polygon>
                    </g>
                    <path d="M23.6770071,10.8547905 C21.9763402,11.4645544 20.3509717,12.1017411 18.8063933,12.7643646 C7.07154987,17.7986073 0,24.3010904 0,31.4008823 C0,47.3793177 35.81722,60.3323989 80,60.3323989 C124.18278,60.3323989 160,47.3793177 160,31.4008823 C160,23.9366704 152.183879,17.1326588 139.350088,12.0008903 C138.048874,11.4805818 136.696078,10.9774638 135.294619,10.4925911" id="Oval-17-Copy" stroke="#13CBDD" stroke-width="1.5" opacity="0.7"></path>
                    <ellipse id="Oval-17" fill="url(#radialGradient-5)" cx="79.7411003" cy="23.60833" rx="65.7605178" ry="23.60833"></ellipse>
                </g>
                <g id="Group-32" transform="translate(51.000000, 0.000000)" fill="url(#radialGradient-6)">
                    <circle id="Oval-18" cx="29.5" cy="29.5" r="29.5"></circle>
                </g>
                <g id="pingtaiguanli" transform="translate(69.000000, 20.000000)" fill="#FFFFFF" fill-rule="nonzero">
                    <path d="M22.2756923,2.59658207e-05 L1.71876923,2.59658207e-05 C0.775328208,-0.00507543125 0.0060992316,0.753197504 0,1.69431496 L0,15.174962 C0,16.1105042 0.769846146,16.869251 1.71876923,16.869251 L11.0769231,16.869251 L11.0769231,20.3075526 L8.11384616,20.3075526 C8.01854991,20.3070459 7.92706322,20.3448384 7.86002587,20.412404 C7.79298852,20.4799697 7.75604808,20.5716164 7.75753846,20.6666682 L7.75753846,21.6408844 C7.75753846,21.8397792 7.90523077,22 8.12492308,22 L15.9267692,22 C16.1298462,22 16.296,21.8434624 16.296,21.6408844 L16.296,20.6648266 C16.2883156,20.4693531 16.1301773,20.313213 15.9341538,20.3075526 L12.9230769,20.3075526 L12.9230769,16.8674094 L22.2812308,16.8674094 C23.2246718,16.8725108 23.9939008,16.1142378 24,15.1731204 L24,1.69063171 C23.9888489,0.750069532 23.2186228,-0.00510238944 22.2756923,2.59658207e-05 Z M22.2756923,15.228369 L1.74646154,15.228369 L1.74646154,1.69063171 L22.2793846,1.69063171 L22.2793846,15.2265273 L22.2756923,15.2265273 L22.2756923,15.228369 Z" id="形状"></path>
                    <path d="M7,6.1528608 C7,6.34415029 7.17256715,6.50128094 7.35580857,6.50128096 L16.6441914,6.50128096 C16.8398861,6.50128096 17,6.36122971 17,6.1528608 L17,5.34842016 C16.997263,5.15972848 16.8406455,5.00636319 16.6441914,5 L7.35580857,5 C7.16011385,5 7,5.13663535 7,5.34842016 L7,6.15115286 L7,6.1528608 Z M7,10.6532878 C7,10.8445773 7.17256715,11 7.35580857,11 L16.6441914,11 C16.8398861,11 17,10.8633646 17,10.6532878 L17,9.8471392 C16.9963256,9.6591122 16.8399695,9.5067534 16.6441914,9.50042697 L7.35580857,9.50042697 C7.16011385,9.50042697 7,9.63706233 7,9.8471392 L7,10.6532878 L7,10.6532878 Z" id="形状"></path>
                </g>
            </g>
        </g>
    </g>
</svg>