<?xml version="1.0" encoding="UTF-8"?>
<svg width="162px" height="199px" viewBox="0 0 162 199" version="1.1" xmlns="http://www.w3.org/2000/svg" xmlns:xlink="http://www.w3.org/1999/xlink">
    <!-- Generator: Sketch 53 (72520) - https://sketchapp.com -->
    <title>分组 12</title>
    <desc>Created with Sketch.</desc>
    <defs>
        <linearGradient x1="30.3920955%" y1="44.9706345%" x2="70.5700002%" y2="55.6138746%" id="linearGradient-1">
            <stop stop-color="#3786B4" offset="0%"></stop>
            <stop stop-color="#13CBDD" offset="100%"></stop>
        </linearGradient>
        <radialGradient cx="50%" cy="50%" fx="50%" fy="50%" r="40.2560987%" gradientTransform="translate(0.500000,0.500000),scale(0.359005,1.000000),rotate(90.000000),scale(1.000000,3.314527),translate(-0.500000,-0.500000)" id="radialGradient-2">
            <stop stop-color="#000420" stop-opacity="0.15477808" offset="0%"></stop>
            <stop stop-color="#13CBDD" stop-opacity="0.40794837" offset="100%"></stop>
        </radialGradient>
        <radialGradient cx="50%" cy="50%" fx="50%" fy="50%" r="63.374504%" id="radialGradient-3">
            <stop stop-color="#000420" stop-opacity="0" offset="0%"></stop>
            <stop stop-color="#0A7AEA" offset="100%"></stop>
        </radialGradient>
        <linearGradient x1="50%" y1="0%" x2="50%" y2="100%" id="linearGradient-4">
            <stop stop-color="#FFFFFF" offset="0%"></stop>
            <stop stop-color="#B4B4B4" offset="100%"></stop>
        </linearGradient>
        <path d="M27.1272728,7.62 L45.3072728,7.62 L45.3072728,9.7 L27.1272728,9.7 L27.1272728,7.62 Z M55.9763637,17.86 L53.0963637,17.86 L52.5963637,15.68 C53.5163637,15.78 54.3763637,15.84 55.1763637,15.84 C55.9563637,15.84 56.3563637,15.44 56.3563637,14.64 L56.3563637,-0.12 L58.5363637,-0.12 L58.5363637,15.2 C58.5363637,16.96 57.6763637,17.86 55.9763637,17.86 Z M50.9563637,4.52 L53.0563637,5.34 C52.1563637,9.26 50.9763637,12.28 49.4963637,14.36 L47.6563637,12.74 C49.1563637,10.68 50.2563637,7.94 50.9563637,4.52 Z M63.2963637,4 C64.6763637,7.5 65.7563637,10.56 66.5163637,13.16 L64.6163637,14.48 C63.8163637,11.7 62.7363637,8.6 61.3763637,5.2 L63.2963637,4 Z M75.6254546,0.9 L75.6254546,15.98 L73.6254546,15.98 L73.6254546,14.78 L71.4454545,14.78 L71.4454545,16.46 L69.4054546,16.46 L69.4054546,0.9 L75.6254546,0.9 Z M71.4454545,12.84 L73.6254546,12.84 L73.6254546,8.7 L71.4454545,8.7 L71.4454545,12.84 Z M71.4454545,6.76 L73.6254546,6.76 L73.6254546,2.8 L71.4454545,2.8 L71.4454545,6.76 Z M78.6854546,6.96 C79.8854546,8.84 80.8254546,10.46 81.4654546,11.84 L79.7254545,13.04 C79.0454546,11.56 78.1254546,9.88 76.9654546,8.04 L78.6854546,6.96 Z M82.9854546,17.88 L79.4054546,17.88 L78.9454545,15.86 C80.1054546,15.94 81.2054545,15.98 82.2454546,15.98 C82.6854546,15.98 82.9254545,15.74 82.9254545,15.26 L82.9254545,5.04 L76.3654546,5.04 L76.3654546,3.02 L82.9254545,3.02 L82.9254545,-0.26 L85.0454546,-0.26 L85.0454546,3.02 L87.2054545,3.02 L87.2054545,5.04 L85.0454546,5.04 L85.0454546,15.78 C85.0454546,17.18 84.3454545,17.88 82.9854546,17.88 Z M91.0545455,0.58 L106.894545,0.58 L106.894545,2.6 L103.754545,2.6 L103.754545,7.2 L107.894545,7.2 L107.894545,9.22 L103.754545,9.22 L103.754545,17.8 L101.654545,17.8 L101.654545,9.22 L96.4745454,9.22 C96.2745455,11.18 95.8745454,12.84 95.2945454,14.18 C94.5145454,15.86 93.2345454,17.16 91.4545454,18.06 L90.3145454,16.28 C91.9345455,15.34 93.0145454,14.16 93.5745454,12.76 C93.9345455,11.76 94.1945454,10.58 94.3545454,9.22 L90.0345454,9.22 L90.0345454,7.2 L94.4945455,7.2 C94.4945455,7.08 94.5145454,6.98 94.5145454,6.86 L94.5145454,2.6 L91.0545455,2.6 L91.0545455,0.58 Z M96.6345454,2.6 L96.6345454,6.86 C96.6345454,6.98 96.6145454,7.08 96.6145454,7.2 L101.654545,7.2 L101.654545,2.6 L96.6345454,2.6 Z M112.643636,-0.26 C113.963636,0.8 115.103636,1.86 116.023636,2.9 L114.563636,4.34 C113.783636,3.34 112.663636,2.24 111.223636,1.08 L112.643636,-0.26 Z M124.043636,17.76 C122.943636,17.76 121.743636,17.74 120.463636,17.72 C119.163636,17.7 118.103636,17.58 117.263636,17.38 C116.463636,17.14 115.763636,16.68 115.163636,16 C114.883636,15.66 114.643636,15.5 114.423636,15.5 C114.023636,15.5 113.343636,16.38 112.343636,18.18 L110.803636,16.76 C111.803636,15.16 112.683636,14.14 113.483636,13.7 L113.483636,8.22 L110.843636,8.22 L110.843636,6.3 L115.423636,6.3 L115.423636,13.9 L115.643636,14.12 C116.103636,14.64 116.563636,15.04 117.043636,15.3 C117.623636,15.6 118.503636,15.76 119.683636,15.8 C120.843636,15.82 122.183636,15.84 123.743636,15.84 C124.743636,15.84 125.743636,15.82 126.783636,15.82 C127.803636,15.78 128.583636,15.74 129.123636,15.7 L128.623636,17.76 L124.043636,17.76 Z M120.503636,1.86 L116.723636,1.86 L116.723636,0.14 L127.783636,0.14 L127.783636,1.6 C126.643636,2.56 125.423636,3.4 124.103636,4.1 L124.143636,4.14 L128.183636,4.14 L128.183636,13 C128.183636,14.24 127.503636,14.88 126.143636,14.88 L124.643636,14.88 L124.183636,13.16 L125.563636,13.22 C126.003636,13.22 126.223636,13 126.223636,12.58 L126.223636,11.74 L123.543636,11.74 L123.543636,14.98 L121.623636,14.98 L121.623636,11.74 L119.023636,11.74 L119.023636,15 L117.063636,15 L117.063636,4.14 L121.503636,4.14 C120.883636,3.74 120.203636,3.32 119.443636,2.9 L120.503636,1.86 Z M122.843636,3.14 C123.603636,2.74 124.303636,2.32 124.963636,1.86 L120.963636,1.86 C121.643636,2.3 122.283636,2.72 122.843636,3.14 Z M119.023636,8.8 L119.023636,10.06 L121.623636,10.06 L121.623636,8.8 L119.023636,8.8 Z M123.543636,8.8 L123.543636,10.06 L126.223636,10.06 L126.223636,8.8 L123.543636,8.8 Z M126.223636,7.12 L126.223636,5.86 L123.543636,5.86 L123.543636,7.12 L126.223636,7.12 Z M121.623636,7.12 L121.623636,5.86 L119.023636,5.86 L119.023636,7.12 L121.623636,7.12 Z" id="path-5"></path>
        <filter x="-1.5%" y="-8.1%" width="102.9%" height="116.3%" filterUnits="objectBoundingBox" id="filter-6">
            <feOffset dx="0" dy="0" in="SourceAlpha" result="shadowOffsetOuter1"></feOffset>
            <feGaussianBlur stdDeviation="0.5" in="shadowOffsetOuter1" result="shadowBlurOuter1"></feGaussianBlur>
            <feColorMatrix values="0 0 0 0 0   0 0 0 0 0   0 0 0 0 0  0 0 0 0.532888986 0" type="matrix" in="shadowBlurOuter1"></feColorMatrix>
        </filter>
    </defs>
    <g id="paas" stroke="none" stroke-width="1" fill="none" fill-rule="evenodd">
        <g id="分组-12" transform="translate(1.000000, 2.000000)">
            <g id="分组-7" transform="translate(0.000000, 32.000000)">
                <g id="Group-31" transform="translate(0.000000, 46.000000)">
                    <g id="Group-27" transform="translate(37.281553, 29.903885)">
                        <polygon id="Path-40" fill="url(#linearGradient-1)" points="48.7821483 2.98217376e-14 0 21.3401247 39.6591671 41.5982527 94.4681725 18.266651"></polygon>
                        <polygon id="Path-41" fill="#102F4B" points="0.131689896 21.4572515 43.5666678 89.1050705 39.6573007 41.6829451"></polygon>
                        <polygon id="Path-42" fill="#107EA3" points="94.4508893 18.2622877 43.5949756 89.0291151 39.7089679 41.6138416"></polygon>
                    </g>
                    <path d="M23.6770071,10.8547905 C21.9763402,11.4645544 20.3509717,12.1017411 18.8063933,12.7643646 C7.07154987,17.7986073 0,24.3010904 0,31.4008823 C0,47.3793177 35.81722,60.3323989 80,60.3323989 C124.18278,60.3323989 160,47.3793177 160,31.4008823 C160,23.9366704 152.183879,17.1326588 139.350088,12.0008903 C138.048874,11.4805818 136.696078,10.9774638 135.294619,10.4925911" id="Oval-17-Copy" stroke="#13CBDD" stroke-width="1.5" opacity="0.7"></path>
                    <ellipse id="Oval-17" fill="url(#radialGradient-2)" cx="79.7411003" cy="23.60833" rx="65.7605178" ry="23.60833"></ellipse>
                </g>
                <g id="Group-32" transform="translate(51.000000, 0.000000)" fill="url(#radialGradient-3)">
                    <circle id="Oval-18" cx="29.5" cy="29.5" r="29.5"></circle>
                </g>
                <g id="shijian" transform="translate(65.000000, 15.000000)" fill="#FFFFFF" fill-rule="nonzero">
                    <path d="M16,2.11764706 C23.5858824,2.11764706 29.7411765,7.88823529 29.7411765,15 C29.7411765,22.1117647 23.5858824,27.8823529 16,27.8823529 C8.41411765,27.8823529 2.25882353,22.1117647 2.25882353,15 C2.25882353,7.88823529 8.41411765,2.11764706 16,2.11764706 L16,2.11764706 Z M16,0 C7.17176471,0 0,6.72352941 0,15 C0,23.2764706 7.17176471,30 16,30 C24.8282353,30 32,23.2764706 32,15 C32,6.72352941 24.8282353,0 16,0 Z" id="形状"></path>
                    <polygon id="路径" points="17 7 15 7 15 16 17 16"></polygon>
                    <polygon id="路径" points="16.1934732 14 15 15.8489426 21.8065268 20 23 18.1691843 16.1934732 14"></polygon>
                </g>
            </g>
            <g id="一小时开通" fill-rule="nonzero">
                <use fill="black" fill-opacity="1" filter="url(#filter-6)" xlink:href="#path-5"></use>
                <use fill="#FFFFFF" xlink:href="#path-5"></use>
                <use fill="url(#linearGradient-4)" xlink:href="#path-5"></use>
            </g>
        </g>
    </g>
</svg>