<?xml version="1.0" encoding="UTF-8"?>
<svg width="138px" height="176px" viewBox="0 0 138 176" version="1.1" xmlns="http://www.w3.org/2000/svg" xmlns:xlink="http://www.w3.org/1999/xlink">
    <!-- Generator: Sketch 53 (72520) - https://sketchapp.com -->
    <title>分组 13</title>
    <desc>Created with Sketch.</desc>
    <defs>
        <linearGradient x1="50%" y1="0%" x2="50%" y2="100%" id="linearGradient-1">
            <stop stop-color="#FFFFFF" offset="0%"></stop>
            <stop stop-color="#B4B4B4" offset="100%"></stop>
        </linearGradient>
        <path d="M25.1054546,4.578 C25.0334546,4.83 24.9794546,5.064 24.9074546,5.316 C25.3034546,7.098 25.7894546,8.664 26.3834546,10.014 C26.9234546,8.43 27.2294546,6.612 27.3014546,4.578 L25.1054546,4.578 Z M25.5194546,11.94 C24.9434546,10.752 24.4394546,9.42 24.0074546,7.944 C23.7374546,8.538 23.4494546,9.096 23.1614546,9.6 L21.9914546,8.142 C22.9814546,6.162 23.6474546,3.516 23.9894546,0.204 L25.8254546,0.528 C25.7174546,1.32 25.6094546,2.058 25.4834546,2.76 L29.9834546,2.76 L29.9834546,4.578 L28.9934546,4.578 C28.8854546,7.476 28.3634546,9.942 27.4094546,11.994 C28.2734546,13.434 29.2994546,14.568 30.4874546,15.378 L29.4434546,16.908 C28.3274546,16.08 27.3374546,15 26.4914546,13.668 C25.6454546,14.928 24.6014546,16.008 23.3774546,16.89 L22.4054546,15.306 C23.7014546,14.442 24.7454546,13.326 25.5194546,11.94 Z M17.0054546,8.556 L18.7694546,8.772 C18.6614546,9.042 18.5714546,9.312 18.4814546,9.564 L22.0994546,9.564 L22.0994546,11.076 C21.7934546,12.12 21.2534546,13.056 20.4614546,13.848 C21.1634546,14.154 21.8474546,14.478 22.5134546,14.838 L21.5054546,16.314 C20.8214546,15.9 19.9934546,15.468 19.0214546,15.018 C17.8334546,15.774 16.3574546,16.368 14.5754546,16.836 L13.7114546,15.27 C15.0074546,14.982 16.1234546,14.604 17.0774546,14.172 C16.3574546,13.866 15.5834546,13.56 14.7914546,13.254 C15.2234546,12.534 15.6014546,11.832 15.9254546,11.166 L14.1434546,11.166 L14.1434546,9.564 L16.6454546,9.564 C16.7714546,9.204 16.8974546,8.88 17.0054546,8.556 Z M18.7694546,13.146 C19.5074546,12.57 20.0654546,11.904 20.4434546,11.166 L17.7794546,11.166 C17.5454546,11.634 17.2934546,12.084 17.0414546,12.516 C17.6174546,12.696 18.1934546,12.912 18.7694546,13.146 Z M15.9074546,0.474 C16.2854546,1.14 16.6274546,1.86 16.9154546,2.634 L15.5834546,3.228 C15.2234546,2.364 14.8454546,1.608 14.4494546,0.942 L15.9074546,0.474 Z M20.9654546,0.456 L22.2794546,1.086 C21.9194546,1.842 21.4694546,2.58 20.9114546,3.3 L19.5974546,2.634 C20.1734546,1.896 20.6414546,1.176 20.9654546,0.456 Z M14.1794546,3.498 L17.5274546,3.498 L17.5274546,0.24 L19.2554546,0.24 L19.2554546,3.498 L22.3154546,3.498 L22.3154546,5.136 L19.2554546,5.136 L19.2554546,5.172 C20.1914546,5.55 21.1454546,5.982 22.1174546,6.468 L21.1454546,7.944 C20.3894546,7.35 19.7594546,6.882 19.2554546,6.54 L19.2554546,8.43 L17.5274546,8.43 L17.5274546,5.604 C16.9154546,6.828 15.9794546,7.89 14.6834546,8.826 L13.7474546,7.314 C14.9174546,6.648 15.7814546,5.928 16.3214546,5.136 L14.1794546,5.136 L14.1794546,3.498 Z M39.9636364,0.24 L41.8716364,0.24 L41.8716364,5.928 L48.9636364,5.928 L48.9636364,7.764 L41.8716364,7.764 L41.8716364,16.872 L39.9636364,16.872 L39.9636364,7.764 L32.8176364,7.764 L32.8176364,5.928 L39.9636364,5.928 L39.9636364,0.24 Z M53.2018182,0.348 C54.3898182,1.284 55.3978182,2.238 56.2258182,3.174 L54.8758182,4.506 C54.1738182,3.606 53.1838182,2.634 51.8878182,1.59 L53.2018182,0.348 Z M63.4438182,16.584 C62.4718182,16.584 61.4098182,16.566 60.2758182,16.548 C59.1238182,16.53 58.1878182,16.422 57.4318182,16.242 C56.7118182,16.026 56.0998182,15.612 55.5778182,15 C55.3438182,14.694 55.1278182,14.55 54.9118182,14.55 C54.5698182,14.55 53.9578182,15.36 53.0578182,16.98 L51.6718182,15.684 C52.5718182,14.244 53.3638182,13.326 54.0838182,12.93 L54.0838182,7.998 L51.7078182,7.998 L51.7078182,6.27 L55.8298182,6.27 L55.8298182,13.128 L56.0098182,13.308 C56.4058182,13.776 56.8198182,14.136 57.2338182,14.37 C57.7558182,14.64 58.5298182,14.784 59.5738182,14.82 C60.5998182,14.838 61.8058182,14.856 63.1738182,14.856 C64.0738182,14.856 64.9738182,14.838 65.9098182,14.838 C66.8278182,14.802 67.5298182,14.766 68.0338182,14.73 L67.5658182,16.584 L63.4438182,16.584 Z M57.9898182,1.05 L66.4858182,1.05 L66.4858182,2.778 L57.9898182,2.778 L57.9898182,1.05 Z M56.8378182,5.1 L67.7998182,5.1 L67.7998182,6.882 L62.2918182,6.882 C61.4998182,8.862 60.7078182,10.428 59.9158182,11.58 C61.8058182,11.328 63.4078182,11.04 64.7398182,10.698 C64.3798182,9.852 63.9838182,9.042 63.5698182,8.268 L65.0998182,7.764 C66.0358182,9.42 66.8638182,11.292 67.5838182,13.416 L65.9098182,13.83 C65.7298182,13.29 65.5678182,12.786 65.3878182,12.3 C63.4438182,12.804 60.9238182,13.218 57.8098182,13.542 L57.3418182,11.904 C58.0618182,11.688 59.0878182,10.014 60.4198182,6.882 L56.8378182,6.882 L56.8378182,5.1 Z M73.802,6.72 L83.306,6.72 L83.306,10.662 L73.802,10.662 L73.802,6.72 Z M81.578,9.276 L81.578,8.124 L75.53,8.124 L75.53,9.276 L81.578,9.276 Z M84.98,11.508 L84.98,16.89 L83.162,16.89 L83.162,16.224 L74.018,16.224 L74.018,16.89 L72.182,16.89 L72.182,11.508 L84.98,11.508 Z M74.018,14.64 L83.162,14.64 L83.162,13.056 L74.018,13.056 L74.018,14.64 Z M70.688,1.284 L74.522,1.284 L74.522,0.24 L76.394,0.24 L76.394,1.284 L80.606,1.284 L80.606,0.24 L82.478,0.24 L82.478,1.284 L86.312,1.284 L86.312,2.922 L82.478,2.922 L82.478,3.786 L80.606,3.786 L80.606,2.922 L76.394,2.922 L76.394,3.786 L74.522,3.786 L74.522,2.922 L70.688,2.922 L70.688,1.284 Z M86.006,4.254 L86.006,7.944 L84.206,7.944 L84.206,5.838 L72.794,5.838 L72.794,8.034 L70.994,8.034 L70.994,4.254 L86.006,4.254 Z M103.996182,6.9 L96.9041818,6.9 L96.9041818,7.836 L105.004182,7.836 L105.004182,9.42 L95.0681818,9.42 L95.0681818,0.708 L104.806182,0.708 L104.806182,2.292 L96.9041818,2.292 L96.9041818,3.192 L103.996182,3.192 L103.996182,6.9 Z M96.9041818,4.632 L96.9041818,5.496 L102.232182,5.496 L102.232182,4.632 L96.9041818,4.632 Z M94.7981818,12.426 L89.4161818,12.426 L89.4161818,10.77 L96.4361818,10.77 L96.4361818,9.78 L98.2721818,9.78 L98.2721818,10.77 L105.274182,10.77 L105.274182,12.426 L99.9821818,12.426 C101.278182,13.38 103.168182,14.154 105.670182,14.748 L104.788182,16.584 C101.746182,15.54 99.5681818,14.154 98.2721818,12.462 L98.2721818,16.89 L96.4361818,16.89 L96.4361818,12.498 C95.2841818,14.136 93.1781818,15.558 90.1181818,16.746 L89.0201818,14.964 C91.7561818,14.19 93.6821818,13.344 94.7981818,12.426 Z M91.1621818,0.24 C92.3501818,0.708 93.4301818,1.266 94.4021818,1.932 L93.4661818,3.336 C92.4221818,2.598 91.3421818,2.022 90.2261818,1.608 L91.1621818,0.24 Z M90.3341818,2.868 C91.3061818,3.228 92.1881818,3.696 93.0161818,4.236 L92.0801818,5.694 C91.2161818,5.082 90.3161818,4.614 89.3981818,4.272 L90.3341818,2.868 Z M93.2141818,5.316 L94.6001818,6.342 C93.3401818,7.854 92.0441818,9.096 90.6941818,10.104 L89.3981818,8.664 C90.8201818,7.71 92.0981818,6.594 93.2141818,5.316 Z M113.094364,2.022 L115.596364,2.022 C115.344364,1.59 115.056364,1.176 114.768364,0.798 L116.514364,0.15 C116.892364,0.69 117.252364,1.302 117.576364,2.022 L119.484364,2.022 C119.898364,1.41 120.258364,0.78 120.582364,0.132 L122.400364,0.78 C122.148364,1.23 121.878364,1.644 121.590364,2.022 L124.128364,2.022 L124.128364,3.768 L119.268364,3.768 L118.944364,4.74 L122.994364,4.74 L122.994364,13.776 L114.138364,13.776 L114.138364,4.74 L116.928364,4.74 C117.054364,4.416 117.162364,4.092 117.234364,3.768 L113.094364,3.768 L113.094364,2.022 Z M121.230364,12.12 L121.230364,11.13 L115.884364,11.13 L115.884364,12.12 L121.230364,12.12 Z M115.884364,9.654 L121.230364,9.654 L121.230364,8.79 L115.884364,8.79 L115.884364,9.654 Z M115.884364,7.314 L121.230364,7.314 L121.230364,6.396 L115.884364,6.396 L115.884364,7.314 Z M109.638364,0.366 C110.826364,1.32 111.852364,2.274 112.680364,3.21 L111.366364,4.506 C110.664364,3.606 109.656364,2.616 108.360364,1.572 L109.638364,0.366 Z M119.898364,16.584 C118.926364,16.584 117.864364,16.566 116.712364,16.548 C115.560364,16.53 114.606364,16.422 113.850364,16.242 C113.130364,16.026 112.500364,15.612 111.996364,15 C111.744364,14.694 111.528364,14.55 111.312364,14.55 C110.952364,14.55 110.304364,15.342 109.368364,16.962 L108.000364,15.684 C108.900364,14.244 109.728364,13.326 110.484364,12.93 L110.484364,7.998 L108.018364,7.998 L108.018364,6.27 L112.230364,6.27 L112.230364,13.128 L112.410364,13.308 C112.824364,13.776 113.238364,14.136 113.652364,14.37 C114.174364,14.64 114.966364,14.784 116.010364,14.82 C117.036364,14.838 118.242364,14.856 119.628364,14.856 C120.528364,14.856 121.428364,14.838 122.364364,14.838 C123.282364,14.802 123.984364,14.766 124.470364,14.73 L124.020364,16.584 L119.898364,16.584 Z" id="path-2"></path>
        <filter x="-1.4%" y="-8.9%" width="102.7%" height="117.8%" filterUnits="objectBoundingBox" id="filter-3">
            <feOffset dx="0" dy="0" in="SourceAlpha" result="shadowOffsetOuter1"></feOffset>
            <feGaussianBlur stdDeviation="0.5" in="shadowOffsetOuter1" result="shadowBlurOuter1"></feGaussianBlur>
            <feColorMatrix values="0 0 0 0 0   0 0 0 0 0   0 0 0 0 0  0 0 0 0.532888986 0" type="matrix" in="shadowBlurOuter1"></feColorMatrix>
        </filter>
        <linearGradient x1="30.3920955%" y1="44.9706345%" x2="70.5700002%" y2="55.6138746%" id="linearGradient-4">
            <stop stop-color="#3786B4" offset="0%"></stop>
            <stop stop-color="#13CBDD" offset="100%"></stop>
        </linearGradient>
        <radialGradient cx="50%" cy="50%" fx="50%" fy="50%" r="40.2560987%" gradientTransform="translate(0.500000,0.500000),scale(0.359005,1.000000),rotate(90.000000),scale(1.000000,3.314527),translate(-0.500000,-0.500000)" id="radialGradient-5">
            <stop stop-color="#000420" stop-opacity="0.15477808" offset="0%"></stop>
            <stop stop-color="#13CBDD" stop-opacity="0.40794837" offset="100%"></stop>
        </radialGradient>
        <radialGradient cx="50%" cy="50%" fx="50%" fy="50%" r="64.6419941%" gradientTransform="translate(0.500000,0.500000),scale(1.000000,0.980392),rotate(90.000000),translate(-0.500000,-0.500000)" id="radialGradient-6">
            <stop stop-color="#000420" stop-opacity="0" offset="0%"></stop>
            <stop stop-color="#94F51E" offset="100%"></stop>
        </radialGradient>
    </defs>
    <g id="paas" stroke="none" stroke-width="1" fill="none" fill-rule="evenodd">
        <g id="分组-13" transform="translate(1.000000, 1.000000)">
            <g id="数十运营渠道" fill-rule="nonzero">
                <use fill="black" fill-opacity="1" filter="url(#filter-3)" xlink:href="#path-2"></use>
                <use fill="#FFFFFF" xlink:href="#path-2"></use>
                <use fill="url(#linearGradient-1)" xlink:href="#path-2"></use>
            </g>
            <g id="分组-8" transform="translate(0.000000, 34.000000)">
                <g id="Group-31" transform="translate(0.000000, 39.000000)">
                    <g id="Group-27" transform="translate(31.689320, 25.418302)">
                        <polygon id="Path-40" fill="url(#linearGradient-4)" points="41.4648261 2.53484769e-14 0 18.139106 33.7102921 35.3585148 80.2979466 15.5266533"></polygon>
                        <polygon id="Path-41" fill="#102F4B" points="0.111936412 18.2386638 37.0316676 75.7393099 33.7087056 35.4305033"></polygon>
                        <polygon id="Path-42" fill="#107EA3" points="80.2832559 15.5229446 37.0557292 75.6747479 33.7526227 35.3717654"></polygon>
                    </g>
                    <path d="M20.125456,9.22657197 C18.6798891,9.74487125 17.2983259,10.2864799 15.9854343,10.8497099 C6.01081739,15.1288162 0,20.6559268 0,26.6907499 C0,40.27242 30.444637,51.282539 68,51.282539 C105.555363,51.282539 136,40.27242 136,26.6907499 C136,20.3461699 129.356297,14.56276 118.447575,10.2007567 C117.341543,9.75849457 116.191667,9.33084427 115.000426,8.91870244" id="Oval-17-Copy" stroke="#13CBDD" stroke-width="1.5" opacity="0.7"></path>
                    <ellipse id="Oval-17" fill="url(#radialGradient-5)" cx="67.7799353" cy="20.0670805" rx="55.8964401" ry="20.0670805"></ellipse>
                </g>
                <g id="Group-32" transform="translate(43.000000, 0.000000)" fill="url(#radialGradient-6)">
                    <ellipse id="Oval-18" cx="25" cy="25.5" rx="25" ry="25.5"></ellipse>
                </g>
                <g id="tongji" transform="translate(56.000000, 13.693359)" fill="#FFFFFF" fill-rule="nonzero">
                    <path d="M0.821102774,22.3066406 C0.368215821,22.3066406 0,21.9277469 0,21.4617267 L0,1.15191443 C0,0.685714251 0.368215821,0.306640625 0.821102774,0.306640625 C1.27416464,0.306640625 1.64255532,0.685714276 1.64255532,1.15191443 L1.64255532,20.6166329 L24.1788972,20.6166329 C24.6317842,20.6166329 25,20.9957065 25,21.4617267 C25,21.9277469 24.6317842,22.3066406 24.1788972,22.3066406 L0.821102774,22.3066406 Z M3.48106105,17.7418175 C3.3029743,17.7418175 3.13305738,17.6835361 2.98974853,17.5733489 C2.62717912,17.2939733 2.55287639,16.7632959 2.82422879,16.3902123 L8.21080293,8.98504911 C8.36760321,8.7697394 8.60742568,8.64626087 8.86910925,8.64626087 C9.03283013,8.64626087 9.19125436,8.69592994 9.32709297,8.79017774 L14.1711622,12.1467727 L22.7068085,5.14991385 C22.853765,5.02941754 23.0304027,4.96571156 23.2177835,4.96571156 C23.4696233,4.96571156 23.7037994,5.08170888 23.8605997,5.28426711 C23.9973627,5.46060255 24.0588986,5.68133679 24.0345141,5.90582449 C24.0099297,6.12992656 23.9017735,6.3309937 23.7302326,6.47190266 L14.7234859,13.8549308 C14.5790777,13.9737303 14.3973433,14.0389531 14.2117863,14.0389531 C14.0477157,14.0389531 13.8890916,13.989284 13.7530781,13.8950362 L9.05776426,10.6415071 L4.13939234,17.4028236 C3.98276695,17.6183133 3.74274462,17.7418175 3.48106105,17.7418175 Z" id="形状"></path>
                </g>
            </g>
        </g>
    </g>
</svg>